<svg width="16" height="16" viewBox="0 0 16 16" fill="#FF7F54" xmlns="http://www.w3.org/2000/svg">
  <path d="M9.18215 10.146C9.18215 9.59374 9.62987 9.14603 10.1822 9.14603H12C12.5523 9.14603 13 8.69831 13 8.14603V7.85397C13 7.30169 12.5523 6.85397 12 6.85397H10.1822C9.62987 6.85397 9.18215 6.40626 9.18215 5.85397V4C9.18215 3.44772 8.73444 3 8.18215 3H7.81785C7.26556 3 6.81785 3.44772 6.81785 4V5.85397C6.81785 6.40626 6.37013 6.85397 5.81785 6.85397H4C3.44772 6.85397 3 7.30169 3 7.85397V8.14603C3 8.69831 3.44772 9.14603 4 9.14603H5.81785C6.37013 9.14603 6.81785 9.59374 6.81785 10.146V12C6.81785 12.5523 7.26556 13 7.81785 13H8.18215C8.73444 13 9.18215 12.5523 9.18215 12V10.146Z" />
</svg>
